# xmcd
# 
# Track frame offsets:
#     150
#     80541
#     151907
#     220829
# 
# Disc length: 3961
# 
# Revision: 0
# Processed by: cddbd v1.5.2PL0 Copyright (c) Steve Scherf et al.
# Submitted via: fre:ac v1.0.17
# 
DISCID=290f7704
DTITLE=Jostein Gaarder - Julemysteriet
DYEAR=0
DGENRE=Audiobook
TTITLE0=01. Desember
TTITLE1=02. Desember
TTITLE2=03. Desember
TTITLE3=04. Desember
EXTD=
EXTT0=
EXTT1=
EXTT2=
EXTT3=
PLAYORDER=
